Run_50003
nRows=4
nColumns=173

# SIMM Motion File Header:
name Run_50003
datacolumns 173
datarows 4
otherdata 1
range 0.99000000 1.02000000
endheader
time	pelvis_tilt	pelvis_list	pelvis_rotation	pelvis_tx	pelvis_ty	pelvis_tz	hip_flexion_r	hip_adduction_r	hip_rotation_r	knee_angle_r	ankle_angle_r	hip_flexion_l	hip_adduction_l	hip_rotation_l	knee_angle_l	ankle_angle_l	lumbar_extension	lumbar_bending	lumbar_rotation	arm_flex_r	arm_add_r	arm_rot_r	elbow_flex_r	pro_sup_r	arm_flex_l	arm_add_l	arm_rot_l	elbow_flex_l	pro_sup_l	subtalar_angle_r	mtp_angle_r	subtalar_angle_l	mtp_angle_l	wrist_flex_r	wrist_dev_r	wrist_flex_l	wrist_dev_l	LASI_tx	LASI_ty	LASI_tz	RASI_tx	RASI_ty	RASI_tz	LPSI_tx	LPSI_ty	LPSI_tz	RPSI_tx	RPSI_ty	RPSI_tz	RTH1_tx	RTH1_ty	RTH1_tz	RTH2_tx	RTH2_ty	RTH2_tz	RTH3_tx	RTH3_ty	RTH3_tz	LTH1_tx	LTH1_ty	LTH1_tz	LTH2_tx	LTH2_ty	LTH2_tz	LTH3_tx	LTH3_ty	LTH3_tz	RTB1_tx	RTB1_ty	RTB1_tz	RTB2_tx	RTB2_ty	RTB2_tz	RTB3_tx	RTB3_ty	RTB3_tz	RLMAL_tx	RLMAL_ty	RLMAL_tz	RMMAL_tx	RMMAL_ty	RMMAL_tz	LTB1_tx	LTB1_ty	LTB1_tz	LTB2_tx	LTB2_ty	LTB2_tz	LTB3_tx	LTB3_ty	LTB3_tz	RCAL_tx	RCAL_ty	RCAL_tz	RTOE_tx	RTOE_ty	RTOE_tz	RMT5_tx	RMT5_ty	RMT5_tz	LCAL_tx	LCAL_ty	LCAL_tz	LTOE_tx	LTOE_ty	LTOE_tz	LMT5_tx	LMT5_ty	LMT5_tz	LACR_tx	LACR_ty	LACR_tz	RACR_tx	RACR_ty	RACR_tz	CLAV_tx	CLAV_ty	CLAV_tz	C7_tx	C7_ty	C7_tz	LPSH_tx	LPSH_ty	LPSH_tz	RUA1_tx	RUA1_ty	RUA1_tz	RUA2_tx	RUA2_ty	RUA2_tz	RUA3_tx	RUA3_ty	RUA3_tz	RLEL_tx	RLEL_ty	RLEL_tz	RMEL_tx	RMEL_ty	RMEL_tz	LUA1_tx	LUA1_ty	LUA1_tz	LUA2_tx	LUA2_ty	LUA2_tz	LUA3_tx	LUA3_ty	LUA3_tz	LLEL_tx	LLEL_ty	LLEL_tz	LMEL_tx	LMEL_ty	LMEL_tz	RFAsuperior_tx	RFAsuperior_ty	RFAsuperior_tz	RFAradius_tx	RFAradius_ty	RFAradius_tz	RFAulna_tx	RFAulna_ty	RFAulna_tz	LFAsuperior_tx	LFAsuperior_ty	LFAsuperior_tz	LFAradius_tx	LFAradius_ty	LFAradius_tz	LFAulna_tx	LFAulna_ty	LFAulna_tz
      0.99000000	     -4.64158013	     -6.08714019	     -4.56663815	      0.92275206	      0.97848118	     -0.34988228	     30.23763413	     15.76274857	      6.47328314	    -44.02693188	     16.53637194	     16.58842898	     -3.06974184	     -2.66724366	   -106.02342225	     -0.13972359	     -6.13730232	     12.38273080	      9.33688643	    -27.15230765	    -23.94846963	    -14.90266173	     93.50196082	     91.67515310	    -29.58080025	    -20.71960938	     -3.18314724	    116.00371596	     96.57528447	      0.00000000	      0.00000000	      0.00000000	      0.00000000	      0.00000000	      0.00000000	      0.00000000	      0.00000000	      0.94094435	      1.00765284	     -0.46594145	      0.93216948	      1.02576201	     -0.23236539	      0.77157030	      1.05507052	     -0.40637536	      0.77044934	      1.05834196	     -0.31951684	      0.90479059	      0.78077763	     -0.18948203	      0.99895405	      0.74189050	     -0.22439366	      0.97123137	      0.62471550	     -0.23072698	      0.85112366	      0.78260372	     -0.51147566	      0.93650968	      0.67988087	     -0.51261273	      0.89982102	      0.58370333	     -0.49609136	      1.02732225	      0.39067997	     -0.30031242	      0.97806814	      0.34033403	     -0.25753316	      0.96512871	      0.21534476	     -0.30931153	      0.89254880	      0.11890455	     -0.29569120	      0.91595012	      0.13530725	     -0.37605620	      0.81831477	      0.43701513	     -0.46079252	      0.71411079	      0.52154356	     -0.47975984	      0.62869819	      0.45553346	     -0.44290273	      0.82606733	      0.09978233	     -0.36232399	      1.05228951	      0.06439239	     -0.32699228	      0.97256799	      0.05678485	     -0.26037385	      0.48715637	      0.55481388	     -0.38842037	      0.45796460	      0.33456486	     -0.42073867	      0.43734729	      0.39876283	     -0.48179902	      0.91420150	      1.52693088	     -0.48638901	      0.92021022	      1.47696664	     -0.16662948	      0.98221507	      1.43384358	     -0.30703517	      0.87733670	      1.53188562	     -0.32385304	      0.82864950	      1.49632996	     -0.49527810	      0.85924125	      1.34333305	     -0.06972956	      0.77280473	      1.30755667	     -0.07945221	      0.77077597	      1.25945223	     -0.02718881	      0.76890286	      1.19647353	      0.00713293	      0.73801620	      1.17807511	     -0.07251981	      0.81329554	      1.43321529	     -0.56473455	      0.73902289	      1.36956849	     -0.55899258	      0.74020322	      1.34134355	     -0.62934469	      0.72703956	      1.27030768	     -0.67046542	      0.69325832	      1.24697953	     -0.58815764	      0.80103993	      1.12248228	      0.00082469	      0.97870487	      1.06387721	     -0.07204897	      0.94906424	      1.00989195	     -0.04342317	      0.78475227	      1.19431703	     -0.64294756	      0.94104531	      1.19719922	     -0.56326560	      0.93214605	      1.13792640	     -0.59703905
      1.00000000	     -5.08673314	     -5.71751704	     -4.91691048	      0.91688681	      0.97532857	     -0.34859263	     29.02807626	     15.99332679	      7.65268364	    -46.08406271	     19.11454482	     21.99819691	     -2.65941034	     -1.80264471	   -108.37185805	      0.93724685	     -6.69342811	     11.87199528	     11.49609215	    -24.51655901	    -23.56308157	    -15.50839702	     93.39684434	     92.72455509	    -29.78112518	    -20.75998625	     -3.71403207	    113.99291717	     96.72635633	      0.00000000	      0.00000000	      0.00000000	      0.00000000	      0.00000000	      0.00000000	      0.00000000	      0.00000000	      0.93544021	      1.00419532	     -0.46491214	      0.92698010	      1.02149198	     -0.22791701	      0.76597270	      1.05247115	     -0.40584916	      0.76603720	      1.05603228	     -0.32025201	      0.89536819	      0.77622478	     -0.19039661	      0.98837623	      0.73683684	     -0.22496882	      0.95583254	      0.61968220	     -0.23199313	      0.85818657	      0.78206477	     -0.51026798	      0.95234722	      0.68540702	     -0.51070764	      0.92284556	      0.58821007	     -0.49435780	      1.00221248	      0.38377840	     -0.30318139	      0.95073835	      0.33609943	     -0.25900123	      0.92867882	      0.21213627	     -0.30976210	      0.84951859	      0.11978878	     -0.29514581	      0.87345825	      0.13559916	     -0.37562849	      0.85213619	      0.43883216	     -0.45910489	      0.74500653	      0.51869691	     -0.48015108	      0.66174810	      0.44849437	     -0.44453963	      0.78189376	      0.10067922	     -0.36139021	      1.00783232	      0.06310021	     -0.32694908	      0.92804572	      0.05636114	     -0.25942226	      0.51200998	      0.54120256	     -0.39423447	      0.49889881	      0.31891771	     -0.42218964	      0.47598657	      0.38036497	     -0.48546525	      0.91307412	      1.52392387	     -0.48720990	      0.92478018	      1.47378764	     -0.16683281	      0.98302728	      1.43045963	     -0.30892278	      0.87899364	      1.53044858	     -0.32284173	      0.82666241	      1.49525486	     -0.49387162	      0.86929493	      1.33530907	     -0.07072851	      0.78255912	      1.29754980	     -0.07794204	      0.78353742	      1.24878786	     -0.02610436	      0.78610472	      1.18581627	      0.00753286	      0.75319187	      1.16586471	     -0.07143144	      0.80742312	      1.43165148	     -0.56201260	      0.73185756	      1.36891619	     -0.55322300	      0.72973185	      1.34162654	     -0.62403610	      0.71432246	      1.27184324	     -0.66514818	      0.68345557	      1.24785346	     -0.58261338	      0.82066786	      1.11298054	     -0.00001187	      0.99805658	      1.06121762	     -0.07620676	      0.97068794	      1.00655795	     -0.04630468	      0.77004682	      1.19298121	     -0.64199630	      0.92941067	      1.18660899	     -0.57000002	      0.91645319	      1.12876203	     -0.60445300
      1.01000000	     -5.29664690	     -4.88880849	     -4.90961402	      0.91253435	      0.97459451	     -0.34795455	     26.51633308	     15.25996268	      8.57382008	    -46.28791928	     21.91581935	     27.00346982	     -1.57222756	     -0.84646212	   -109.42278543	      2.07643090	     -7.17813520	     10.81199566	     13.14289439	    -22.08509352	    -22.98144300	    -15.93228631	     94.01320859	     94.27345155	    -30.16355181	    -20.71431790	     -4.01282500	    112.32076936	     96.42348588	      0.00000000	      0.00000000	      0.00000000	      0.00000000	      0.00000000	      0.00000000	      0.00000000	      0.00000000	      0.93054272	      1.00465989	     -0.46443301	      0.92319691	      1.01897424	     -0.22476863	      0.76207310	      1.05236780	     -0.40464457	      0.76297947	      1.05579032	     -0.31927384	      0.88379795	      0.77185859	     -0.19091379	      0.97484653	      0.72805878	     -0.22404430	      0.93500197	      0.61216869	     -0.23351256	      0.86585541	      0.78470190	     -0.51017256	      0.96907704	      0.69551539	     -0.50862281	      0.94585899	      0.59711668	     -0.49272522	      0.97297178	      0.37462333	     -0.30461090	      0.91990466	      0.32909151	     -0.25980539	      0.89041275	      0.20710346	     -0.31002558	      0.80641809	      0.12003054	     -0.29408187	      0.83039769	      0.13525014	     -0.37491987	      0.88592801	      0.44362171	     -0.45809517	      0.77463377	      0.51727257	     -0.47969185	      0.69476912	      0.44133161	     -0.44613897	      0.73805763	      0.10095442	     -0.36045860	      0.96362795	      0.06221352	     -0.32594950	      0.88373792	      0.05622469	     -0.25801743	      0.53575300	      0.52385552	     -0.39903719	      0.54335909	      0.30106129	     -0.42424440	      0.51682987	      0.35961774	     -0.48918767	      0.91130448	      1.52303408	     -0.48768438	      0.92942832	      1.47285177	     -0.16784473	      0.98327451	      1.42888897	     -0.31121497	      0.87979947	      1.53028993	     -0.32222278	      0.82415315	      1.49613854	     -0.49246610	      0.87864259	      1.33094016	     -0.07228836	      0.79195364	      1.29051206	     -0.07804050	      0.79576731	      1.24151465	     -0.02637734	      0.80264981	      1.17849883	      0.00648883	      0.76789455	      1.15703776	     -0.07164178	      0.80179055	      1.43261422	     -0.55925901	      0.72530920	      1.37118359	     -0.54674847	      0.72028130	      1.34428243	     -0.61798410	      0.70220807	      1.27512583	     -0.65864373	      0.67427734	      1.25121922	     -0.57576004	      0.84062331	      1.10715102	     -0.00266535	      1.01711630	      1.06379373	     -0.08370429	      0.99270970	      1.00824144	     -0.05253859	      0.75563160	      1.19351804	     -0.63935189	      0.91733234	      1.17941476	     -0.57459435	      0.90034187	      1.12253203	     -0.60870543
      1.02000000	     -5.33316641	     -3.89604257	     -4.53060928	      0.91013595	      0.97609212	     -0.34797556	     23.08388620	     13.90097967	      8.94558143	    -45.06489658	     24.50619768	     31.46860184	     -0.12258342	      0.20015347	   -109.25547402	      3.08372418	     -7.43631148	      9.58662315	     14.32543438	    -20.21560815	    -22.24969794	    -16.13845256	     95.58447423	     95.71445875	    -30.78773528	    -20.64886474	     -3.95609544	    111.16021764	     95.35544665	      0.00000000	      0.00000000	      0.00000000	      0.00000000	      0.00000000	      0.00000000	      0.00000000	      0.00000000	      0.92724766	      1.00826651	     -0.46421257	      0.92138527	      1.01804019	     -0.22408736	      0.75978694	      1.05488497	     -0.40280097	      0.76104760	      1.05784218	     -0.31658245	      0.87149335	      0.76916197	     -0.19108999	      0.95941831	      0.71783929	     -0.22239533	      0.91225261	      0.60486641	     -0.23471864	      0.87392454	      0.78952855	     -0.51065720	      0.98585447	      0.70913288	     -0.50667742	      0.96876742	      0.60878843	     -0.49146484	      0.94095002	      0.36580277	     -0.30438746	      0.88591600	      0.32239929	     -0.26012315	      0.85134357	      0.20260923	     -0.31010570	      0.76385500	      0.12072839	     -0.29339278	      0.78836869	      0.13515846	     -0.37470898	      0.91878495	      0.45072955	     -0.45723637	      0.80253159	      0.51641735	     -0.47871706	      0.72763311	      0.43390075	     -0.44749696	      0.69488442	      0.10120159	     -0.36049861	      0.92004266	      0.06191368	     -0.32489416	      0.84004514	      0.05624941	     -0.25720808	      0.55980665	      0.50303151	     -0.40244747	      0.59063158	      0.28206942	     -0.42704574	      0.55941687	      0.33770004	     -0.49283915	      0.90793162	      1.52424116	     -0.48772059	      0.93395098	      1.47415804	     -0.16908026	      0.98323027	      1.42931321	     -0.31350189	      0.87957163	      1.53111694	     -0.32181920	      0.82041988	      1.49836084	     -0.49052279	      0.88686051	      1.33015166	     -0.07395614	      0.80071411	      1.28679967	     -0.07900933	      0.80708075	      1.23779342	     -0.02750989	      0.81748592	      1.17476282	      0.00439085	      0.78111114	      1.15242901	     -0.07291149	      0.79578448	      1.43567134	     -0.55630546	      0.71910401	      1.37599503	     -0.54018679	      0.71141427	      1.34899563	     -0.61159953	      0.69021785	      1.27995467	     -0.65160773	      0.66512253	      1.25681086	     -0.56797298	      0.85935977	      1.10539112	     -0.00712064	      1.03443383	      1.07241623	     -0.09431169	      1.01384179	      1.01555115	     -0.06252895	      0.74138415	      1.19592490	     -0.63497482	      0.90494876	      1.17648283	     -0.57691557	      0.88430840	      1.11988773	     -0.60941264
